{
  "accessors": [
    {
      "bufferView": 1,
      "componentType": 5126,
      "count": 367,
      "max": [
        0.5,
        0.5,
        0.65067601203918457
      ],
      "min": [
        -0.49999994039535522,
        -0.9524383544921875,
        -0.44671010971069336
      ],
      "type": "VEC3"
    },
    {
      "bufferView": 1,
      "byteOffset": 4404,
      "componentType": 5126,
      "count": 367,
      "max": [
        1,
        1,
        0.99041539430618286
      ],
      "min": [
        -1,
        -1,
        -0.99041539430618286
      ],
      "type": "VEC3"
    },
    {
      "bufferView": 2,
      "componentType": 5126,
      "count": 367,
      "max": [
        1,
        1,
        1,
        1
      ],
      "min": [
        -0.99041539430618286,
        -0.69205325841903687,
        -1,
        -1
      ],
      "type": "VEC4"
    },
    {
      "bufferView": 0,
      "componentType": 5125,
      "count": 810,
      "max": [
        366
      ],
      "min": [
        0
      ],
      "type": "SCALAR"
    },
    {
      "bufferView": 1,
      "byteOffset": 8808,
      "componentType": 5126,
      "count": 142,
      "max": [
        0.47640466690063477,
        0.5,
        0.17196771502494812
      ],
      "min": [
        -0.5,
        -0.5,
        -1.0927600860595703
      ],
      "type": "VEC3"
    },
    {
      "bufferView": 1,
      "byteOffset": 10512,
      "componentType": 5126,
      "count": 142,
      "max": [
        1,
        1,
        0.99617636203765869
      ],
      "min": [
        -1,
        -1,
        -0.99617636203765869
      ],
      "type": "VEC3"
    },
    {
      "bufferView": 2,
      "byteOffset": 5872,
      "componentType": 5126,
      "count": 142,
      "max": [
        1,
        3.7646749717623607e-08,
        1,
        1
      ],
      "min": [
        0,
        -1.3576363144807146e-08,
        -1,
        -1
      ],
      "type": "VEC4"
    },
    {
      "bufferView": 0,
      "byteOffset": 3240,
      "componentType": 5125,
      "count": 528,
      "max": [
        141
      ],
      "min": [
        0
      ],
      "type": "SCALAR"
    },
    {
      "bufferView": 1,
      "byteOffset": 12216,
      "componentType": 5126,
      "count": 604,
      "max": [
        0.45890516042709351,
        0.5,
        0.17196771502494812
      ],
      "min": [
        -0.5,
        -0.52915191650390625,
        -1.0317445993423462
      ],
      "type": "VEC3"
    },
    {
      "bufferView": 1,
      "byteOffset": 19464,
      "componentType": 5126,
      "count": 604,
      "max": [
        1,
        1,
        0.99617636203765869
      ],
      "min": [
        -1,
        -0.85972881317138672,
        -0.99617636203765869
      ],
      "type": "VEC3"
    },
    {
      "bufferView": 2,
      "byteOffset": 8144,
      "componentType": 5126,
      "count": 604,
      "max": [
        1,
        0.97308695316314697,
        1,
        1
      ],
      "min": [
        -0.64660370349884033,
        -0.84264695644378662,
        -1,
        -1
      ],
      "type": "VEC4"
    },
    {
      "bufferView": 0,
      "byteOffset": 5352,
      "componentType": 5125,
      "count": 1080,
      "max": [
        603
      ],
      "min": [
        0
      ],
      "type": "SCALAR"
    },
    {
      "bufferView": 1,
      "byteOffset": 26712,
      "componentType": 5126,
      "count": 3042,
      "max": [
        145.70172119140625,
        306.35467529296875,
        83.17706298828125
      ],
      "min": [
        -157.1630859375,
        -1.0659713745117188,
        -83.17706298828125
      ],
      "type": "VEC3"
    },
    {
      "bufferView": 1,
      "byteOffset": 63216,
      "componentType": 5126,
      "count": 3042,
      "max": [
        1,
        1,
        1
      ],
      "min": [
        -1,
        -1,
        -1
      ],
      "type": "VEC3"
    },
    {
      "bufferView": 2,
      "byteOffset": 17808,
      "componentType": 5126,
      "count": 3042,
      "max": [
        1,
        1,
        1,
        1
      ],
      "min": [
        -1,
        -0.99996531009674072,
        -1,
        -1
      ],
      "type": "VEC4"
    },
    {
      "bufferView": 0,
      "byteOffset": 9672,
      "componentType": 5125,
      "count": 9312,
      "max": [
        3041
      ],
      "min": [
        0
      ],
      "type": "SCALAR"
    },
    {
      "bufferView": 1,
      "byteOffset": 99720,
      "componentType": 5126,
      "count": 66,
      "max": [
        0.51567751169204712,
        0.5,
        1.6005440950393677
      ],
      "min": [
        -0.44623115658760071,
        -0.5,
        -1.6580920219421387
      ],
      "type": "VEC3"
    },
    {
      "bufferView": 1,
      "byteOffset": 100512,
      "componentType": 5126,
      "count": 66,
      "max": [
        0.99989694356918335,
        1,
        0.50127112865447998
      ],
      "min": [
        -0.99993497133255005,
        -1,
        -1
      ],
      "type": "VEC3"
    },
    {
      "bufferView": 2,
      "byteOffset": 66480,
      "componentType": 5126,
      "count": 66,
      "max": [
        1,
        0.28878048062324524,
        0.99993497133255005,
        1
      ],
      "min": [
        -0.10786399990320206,
        -2.0452237095014425e-06,
        -0.99989694356918335,
        1
      ],
      "type": "VEC4"
    },
    {
      "bufferView": 0,
      "byteOffset": 46920,
      "componentType": 5125,
      "count": 192,
      "max": [
        65
      ],
      "min": [
        0
      ],
      "type": "SCALAR"
    },
    {
      "bufferView": 3,
      "componentType": 5126,
      "count": 39,
      "max": [
        1.6666666269302368
      ],
      "min": [
        0.83332335948944092
      ],
      "type": "SCALAR"
    },
    {
      "bufferView": 4,
      "componentType": 5126,
      "count": 39,
      "max": [
        54.471839904785156,
        260.14617919921875,
        63.237972259521484
      ],
      "min": [
        -48.872146606445312,
        170.35957336425781,
        63.237972259521484
      ],
      "type": "VEC3"
    },
    {
      "bufferView": 3,
      "byteOffset": 156,
      "componentType": 5126,
      "count": 2,
      "max": [
        1.6666666269302368
      ],
      "min": [
        0.83332335948944092
      ],
      "type": "SCALAR"
    },
    {
      "bufferView": 4,
      "byteOffset": 468,
      "componentType": 5126,
      "count": 2,
      "max": [
        199.50668334960938,
        8.9849948883056641,
        137.79670715332031
      ],
      "min": [
        199.50668334960938,
        8.9849948883056641,
        137.79670715332031
      ],
      "type": "VEC3"
    },
    {
      "bufferView": 3,
      "byteOffset": 164,
      "componentType": 5126,
      "count": 39,
      "max": [
        1.6666666269302368
      ],
      "min": [
        0.83332335948944092
      ],
      "type": "SCALAR"
    },
    {
      "bufferView": 5,
      "componentType": 5126,
      "count": 39,
      "max": [
        0,
        0,
        0.68273621797561646,
        1
      ],
      "min": [
        0,
        0,
        -0.0037445325870066881,
        0.73066490888595581
      ],
      "type": "VEC4"
    },
    {
      "bufferView": 3,
      "byteOffset": 320,
      "componentType": 5126,
      "count": 14,
      "max": [
        0.5
      ],
      "min": [
        0.041666667908430099
      ],
      "type": "SCALAR"
    },
    {
      "bufferView": 4,
      "byteOffset": 492,
      "componentType": 5126,
      "count": 14,
      "max": [
        -110.46844482421875,
        284.4189453125,
        -67.518478393554688
      ],
      "min": [
        -112.53730010986328,
        273.43319702148438,
        -69.595108032226562
      ],
      "type": "VEC3"
    },
    {
      "bufferView": 3,
      "byteOffset": 376,
      "componentType": 5126,
      "count": 2,
      "max": [
        0.5
      ],
      "min": [
        0.041666667908430099
      ],
      "type": "SCALAR"
    },
    {
      "bufferView": 4,
      "byteOffset": 660,
      "componentType": 5126,
      "count": 2,
      "max": [
        53.037380218505859,
        11.12429141998291,
        9.9193916320800781
      ],
      "min": [
        53.037380218505859,
        11.12429141998291,
        9.9193916320800781
      ],
      "type": "VEC3"
    },
    {
      "bufferView": 3,
      "byteOffset": 384,
      "componentType": 5126,
      "count": 14,
      "max": [
        0.5
      ],
      "min": [
        0.041666667908430099
      ],
      "type": "SCALAR"
    },
    {
      "bufferView": 5,
      "byteOffset": 624,
      "componentType": 5126,
      "count": 14,
      "max": [
        0.6588703989982605,
        0.26616621017456055,
        0.086930125951766968,
        0.75286650657653809
      ],
      "min": [
        0.64751434326171875,
        0.0409572534263134,
        -0.11063335835933685,
        0.70607370138168335
      ],
      "type": "VEC4"
    }
  ],
  "animations": [
    {
      "channels": [
        {
          "sampler": 0,
          "target": {
            "node": 11,
            "path": "translation"
          }
        },
        {
          "sampler": 1,
          "target": {
            "node": 11,
            "path": "scale"
          }
        },
        {
          "sampler": 2,
          "target": {
            "node": 11,
            "path": "rotation"
          }
        },
        {
          "sampler": 3,
          "target": {
            "node": 25,
            "path": "translation"
          }
        },
        {
          "sampler": 4,
          "target": {
            "node": 25,
            "path": "scale"
          }
        },
        {
          "sampler": 5,
          "target": {
            "node": 25,
            "path": "rotation"
          }
        }
      ],
      "name": "Take 001",
      "samplers": [
        {
          "input": 20,
          "interpolation": "LINEAR",
          "output": 21
        },
        {
          "input": 22,
          "interpolation": "LINEAR",
          "output": 23
        },
        {
          "input": 24,
          "interpolation": "LINEAR",
          "output": 25
        },
        {
          "input": 26,
          "interpolation": "LINEAR",
          "output": 27
        },
        {
          "input": 28,
          "interpolation": "LINEAR",
          "output": 29
        },
        {
          "input": 30,
          "interpolation": "LINEAR",
          "output": 31
        }
      ]
    }
  ],
  "asset": {
    "extras": {
      "author": "Alex321432 (https://sketchfab.com/killercws321432)",
      "license": "CC-BY-4.0 (http://creativecommons.org/licenses/by/4.0/)",
      "source": "https://sketchfab.com/models/c901dfa120a0487a9f5c9a2d241f70ab",
      "title": "Animated low poly toilet"
    },
    "generator": "Sketchfab-3.18.5",
    "version": "2.0"
  },
  "bufferViews": [
    {
      "buffer": 0,
      "byteLength": 47688,
      "byteOffset": 0,
      "name": "floatBufferViews",
      "target": 34963
    },
    {
      "buffer": 0,
      "byteLength": 101304,
      "byteOffset": 47688,
      "byteStride": 12,
      "name": "floatBufferViews",
      "target": 34962
    },
    {
      "buffer": 0,
      "byteLength": 67536,
      "byteOffset": 148992,
      "byteStride": 16,
      "name": "floatBufferViews",
      "target": 34962
    },
    {
      "buffer": 0,
      "byteLength": 440,
      "byteOffset": 216528,
      "name": "floatBufferViews"
    },
    {
      "buffer": 0,
      "byteLength": 684,
      "byteOffset": 216968,
      "byteStride": 12,
      "name": "floatBufferViews"
    },
    {
      "buffer": 0,
      "byteLength": 848,
      "byteOffset": 217652,
      "byteStride": 16,
      "name": "floatBufferViews"
    }
  ],
  "buffers": [
    {
      "byteLength": 218500,
      "uri": "scene.bin"
    }
  ],
  "extensionsRequired": [
    "KHR_materials_pbrSpecularGlossiness"
  ],
  "extensionsUsed": [
    "KHR_materials_pbrSpecularGlossiness"
  ],
  "materials": [
    {
      "doubleSided": false,
      "emissiveFactor": [
        0,
        0,
        0
      ],
      "extensions": {
        "KHR_materials_pbrSpecularGlossiness": {
          "diffuseFactor": [
            0.82792209999999988,
            0.82792209999999988,
            0.82792209999999988,
            1
          ],
          "glossinessFactor": 0.44,
          "specularFactor": [
            0.55000000000000004,
            0.55000000000000004,
            0.55000000000000004
          ]
        }
      },
      "name": "phong2"
    },
    {
      "doubleSided": true,
      "emissiveFactor": [
        0,
        0,
        0
      ],
      "extensions": {
        "KHR_materials_pbrSpecularGlossiness": {
          "diffuseFactor": [
            0.13400305046999997,
            0.13400305046999997,
            0.13400305046999997,
            1
          ],
          "glossinessFactor": 0.88,
          "specularFactor": [
            0.48999999999999999,
            0.48999999999999999,
            0.48999999999999999
          ]
        }
      },
      "name": "phong3"
    }
  ],
  "meshes": [
    {
      "name": "pCube3_phong2_0",
      "primitives": [
        {
          "attributes": {
            "NORMAL": 1,
            "POSITION": 0,
            "TANGENT": 2
          },
          "indices": 3,
          "material": 0,
          "mode": 4
        }
      ]
    },
    {
      "name": "pCube4_phong2_0",
      "primitives": [
        {
          "attributes": {
            "NORMAL": 5,
            "POSITION": 4,
            "TANGENT": 6
          },
          "indices": 7,
          "material": 0,
          "mode": 4
        }
      ]
    },
    {
      "name": "pCube5_phong2_0",
      "primitives": [
        {
          "attributes": {
            "NORMAL": 9,
            "POSITION": 8,
            "TANGENT": 10
          },
          "indices": 11,
          "material": 0,
          "mode": 4
        }
      ]
    },
    {
      "name": "pCube9_phong2_0",
      "primitives": [
        {
          "attributes": {
            "NORMAL": 13,
            "POSITION": 12,
            "TANGENT": 14
          },
          "indices": 15,
          "material": 0,
          "mode": 4
        }
      ]
    },
    {
      "name": "pCube10_phong3_0",
      "primitives": [
        {
          "attributes": {
            "NORMAL": 17,
            "POSITION": 16,
            "TANGENT": 18
          },
          "indices": 19,
          "material": 1,
          "mode": 4
        }
      ]
    }
  ],
  "nodes": [
    {
      "children": [
        1
      ],
      "name": "RootNode (gltf orientation matrix)",
      "rotation": [
        -0.70710678118654746,
        -0,
        -0,
        0.70710678118654757
      ]
    },
    {
      "children": [
        2
      ],
      "name": "RootNode (model correction matrix)"
    },
    {
      "children": [
        3
      ],
      "matrix": [
        1,
        0,
        0,
        0,
        0,
        0,
        1,
        0,
        0,
        -1,
        0,
        0,
        0,
        0,
        0,
        1
      ],
      "name": "e85db5379e9c4de2b3288d8b387a3836.fbx"
    },
    {
      "children": [
        4
      ],
      "name": ""
    },
    {
      "children": [
        5,
        7,
        9,
        11,
        13,
        15,
        17,
        19,
        21,
        23,
        25
      ],
      "name": "RootNode"
    },
    {
      "children": [
        6
      ],
      "name": "pCube1",
      "scale": [
        259.5133056640625,
        161.4332275390625,
        40.892173767089844
      ],
      "translation": [
        15.945062637329102,
        79.650642395019531,
        0
      ]
    },
    {
      "name": "transform2"
    },
    {
      "children": [
        8
      ],
      "name": "pCube2",
      "scale": [
        102.27923583984375,
        145.81259155273438,
        156.2437744140625
      ],
      "translation": [
        -105.79386138916016,
        233.44837951660156,
        29.539100646972656
      ]
    },
    {
      "name": "transform5"
    },
    {
      "children": [
        10
      ],
      "name": "pCube3",
      "scale": [
        100.54737854003906,
        11.363234519958496,
        144.96345520019531
      ],
      "translation": [
        -106.80033111572266,
        312.65798950195312,
        -14.783801078796387
      ]
    },
    {
      "mesh": 0,
      "name": "pCube3_phong2_0"
    },
    {
      "children": [
        12
      ],
      "name": "pCube4",
      "rotation": [
        0,
        0,
        0.68273621797561646,
        0.73066490888595581
      ],
      "scale": [
        199.50668334960938,
        8.9849948883056641,
        137.79670715332031
      ],
      "translation": [
        -48.872146606445312,
        260.06539916992188,
        63.237972259521484
      ]
    },
    {
      "mesh": 1,
      "name": "pCube4_phong2_0"
    },
    {
      "children": [
        14
      ],
      "name": "pCube5",
      "scale": [
        199.36018371582031,
        5.6414241790771484,
        143.55104064941406
      ],
      "translation": [
        53.192600250244141,
        163.67530822753906,
        61.710929870605469
      ]
    },
    {
      "mesh": 2,
      "name": "pCube5_phong2_0"
    },
    {
      "children": [
        16
      ],
      "name": "pCylinder1",
      "rotation": [
        0.7071068286895752,
        0,
        0,
        0.7071068286895752
      ],
      "scale": [
        4.8916468620300293,
        15.499350547790527,
        4.8916468620300293
      ],
      "translation": [
        -44.877449035644531,
        164.73966979980469,
        -0.9161033034324646
      ]
    },
    {
      "name": "transform3",
      "rotation": [
        -1.2325951644078309e-32,
        -0,
        0,
        1
      ]
    },
    {
      "children": [
        18
      ],
      "name": "pCube6",
      "rotation": [
        0.0013698525726795197,
        -0.0011047653388231993,
        -0.0230572409927845,
        0.9997326135635376
      ],
      "scale": [
        16.5064697265625,
        9.798457145690918,
        16.5064697265625
      ],
      "translation": [
        -54.956077575683594,
        164.43577575683594,
        0
      ]
    },
    {
      "name": "transform1",
      "rotation": [
        -1.0842021724855044e-19,
        -1.0268126825424997e-36,
        9.4706753832503321e-18,
        1
      ]
    },
    {
      "children": [
        20
      ],
      "name": "pCube7"
    },
    {
      "name": "transform4"
    },
    {
      "children": [
        22
      ],
      "name": "pCube8",
      "translation": [
        0,
        0,
        22.763299942016602
      ]
    },
    {
      "name": "transform6"
    },
    {
      "children": [
        24
      ],
      "name": "pCube9"
    },
    {
      "mesh": 3,
      "name": "pCube9_phong2_0"
    },
    {
      "children": [
        26
      ],
      "name": "pCube10",
      "rotation": [
        0.65183883905410767,
        0.08441384881734848,
        -0.075641684234142303,
        0.74983924627304077
      ],
      "scale": [
        53.037380218505859,
        11.12429141998291,
        9.9193916320800781
      ],
      "translation": [
        -111.32267761230469,
        282.53387451171875,
        -69.074806213378906
      ]
    },
    {
      "mesh": 4,
      "name": "pCube10_phong3_0"
    }
  ],
  "scene": 0,
  "scenes": [
    {
      "name": "OSG_Scene",
      "nodes": [
        0
      ]
    }
  ]
}

